<svg xmlns="http://www.w3.org/2000/svg" viewBox="0 0 720 820" font-family="Georgia, 'Times New Roman', serif" role="img" aria-labelledby="t d">
<title id="t">Church and saints in Revelation</title>
<desc id="d">A chapter-by-chapter count of four Greek words across Revelation's twenty-two chapters, one dot per occurrence, under the book's own division (Revelation 1:19): what John has seen (chapter 1), what is (chapters 2 and 3), and what must take place after this (chapters 4 to 22), opened at 4:1 by a door in heaven. The judgments of chapters 6 to 19 are shaded. ekklesia, church, occurs twenty times: nineteen in chapters 1 to 3 and once in 22:16, and not at all in between. hagioi, saints, occurs thirteen times, all in chapters 5 to 20. thlipsis, tribulation, occurs five times: four in chapters 1 and 2, where it is the churches' present suffering, and once in 7:14, 'the great tribulation'. metanoeo, repent, occurs eight times in the letters, as a call or a warning to the churches and once already refused, 'she refuses to repent' (2:21), and four times in chapters 9 and 16, where every one is 'they did not repent'.</desc>
<rect width="720" height="820" fill="#faf6ec"/>
<rect x="8" y="8" width="704" height="804" fill="none" stroke="#3b2f1e" stroke-width="2.5"/>
<rect x="14" y="14" width="692" height="792" fill="none" stroke="#3b2f1e" stroke-width="0.8"/>
<text x="360.0" y="50.0" font-size="26" fill="#3b2f1e" text-anchor="middle" font-weight="bold" letter-spacing="2">CHURCH AND SAINTS IN REVELATION</text>
<text x="360.0" y="78.0" font-size="15" fill="#6b5a3e" text-anchor="middle" font-style="italic">One dot for each occurrence, chapter by chapter (SBLGNT)</text>
<path d="M210.0 92 H510.0" stroke="#3b2f1e" stroke-width="0.8"/>
<circle cx="360.0" cy="92" r="3" fill="#3b2f1e"/>
<path d="M178.0 138 V128 H197.6 V138" fill="none" stroke="#3b2f1e" stroke-width="1.4"/>
<text x="187.8" y="120.0" font-size="11.5" fill="#3b2f1e" text-anchor="middle" font-style="italic">seen</text>
<path d="M201.6 138 V128 H244.9 V138" fill="none" stroke="#3b2f1e" stroke-width="1.4"/>
<text x="223.3" y="120.0" font-size="13" fill="#3b2f1e" text-anchor="middle" font-style="italic">what is</text>
<path d="M248.9 138 V128 H694.0 V138" fill="none" stroke="#3b2f1e" stroke-width="1.4"/>
<text x="471.5" y="120.0" font-size="13" fill="#3b2f1e" text-anchor="middle" font-style="italic">“what must take place after this” (4:1)</text>
<text x="24.0" y="132.0" font-size="13" fill="#3b2f1e" font-weight="bold">Revelation 1:19</text>
<rect x="294.2" y="180" width="330.9" height="480" fill="#f1dcd4" opacity="0.7"/>
<text x="459.6" y="652.0" font-size="13" fill="#8b1e1e" text-anchor="middle" font-style="italic">the judgments · chapters 6–19</text>
<path d="M246.9 154 V660" stroke="#a67c3d" stroke-width="2" stroke-dasharray="5 3"/>
<text x="250.9" y="678.0" font-size="12.5" fill="#a67c3d" font-weight="bold">4:1 “Come up here”</text>
<text x="187.8" y="168.0" font-size="12.5" fill="#6b5a3e" text-anchor="middle" font-weight="bold">1</text>
<text x="211.5" y="168.0" font-size="12.5" fill="#6b5a3e" text-anchor="middle" font-weight="bold">2</text>
<text x="235.1" y="168.0" font-size="12.5" fill="#6b5a3e" text-anchor="middle" font-weight="bold">3</text>
<text x="258.7" y="168.0" font-size="12.5" fill="#6b5a3e" text-anchor="middle" font-weight="bold">4</text>
<text x="282.4" y="168.0" font-size="12.5" fill="#6b5a3e" text-anchor="middle" font-weight="bold">5</text>
<text x="306.0" y="168.0" font-size="12.5" fill="#6b5a3e" text-anchor="middle" font-weight="bold">6</text>
<text x="329.6" y="168.0" font-size="12.5" fill="#6b5a3e" text-anchor="middle" font-weight="bold">7</text>
<text x="353.3" y="168.0" font-size="12.5" fill="#6b5a3e" text-anchor="middle" font-weight="bold">8</text>
<text x="376.9" y="168.0" font-size="12.5" fill="#6b5a3e" text-anchor="middle" font-weight="bold">9</text>
<text x="400.5" y="168.0" font-size="12.5" fill="#6b5a3e" text-anchor="middle" font-weight="bold">10</text>
<text x="424.2" y="168.0" font-size="12.5" fill="#6b5a3e" text-anchor="middle" font-weight="bold">11</text>
<text x="447.8" y="168.0" font-size="12.5" fill="#6b5a3e" text-anchor="middle" font-weight="bold">12</text>
<text x="471.5" y="168.0" font-size="12.5" fill="#6b5a3e" text-anchor="middle" font-weight="bold">13</text>
<text x="495.1" y="168.0" font-size="12.5" fill="#6b5a3e" text-anchor="middle" font-weight="bold">14</text>
<text x="518.7" y="168.0" font-size="12.5" fill="#6b5a3e" text-anchor="middle" font-weight="bold">15</text>
<text x="542.4" y="168.0" font-size="12.5" fill="#6b5a3e" text-anchor="middle" font-weight="bold">16</text>
<text x="566.0" y="168.0" font-size="12.5" fill="#6b5a3e" text-anchor="middle" font-weight="bold">17</text>
<text x="589.6" y="168.0" font-size="12.5" fill="#6b5a3e" text-anchor="middle" font-weight="bold">18</text>
<text x="613.3" y="168.0" font-size="12.5" fill="#6b5a3e" text-anchor="middle" font-weight="bold">19</text>
<text x="636.9" y="168.0" font-size="12.5" fill="#6b5a3e" text-anchor="middle" font-weight="bold">20</text>
<text x="660.5" y="168.0" font-size="12.5" fill="#6b5a3e" text-anchor="middle" font-weight="bold">21</text>
<text x="684.2" y="168.0" font-size="12.5" fill="#6b5a3e" text-anchor="middle" font-weight="bold">22</text>
<path d="M176 304 H696" stroke="#6b5a3e" stroke-width="0.6"/>
<text x="24.0" y="282.0" font-size="17" fill="#3b2f1e" font-weight="bold">ἐκκλησία</text>
<text x="24.0" y="300.0" font-size="13" fill="#6b5a3e" font-style="italic">ekklēsia, “church”</text>
<text x="24.0" y="316.0" font-size="12.5" fill="#6b5a3e">G1577 · 20 times</text>
<circle cx="187.8" cy="296.0" r="4.4" fill="#a67c3d"/>
<circle cx="187.8" cy="285.5" r="4.4" fill="#a67c3d"/>
<circle cx="187.8" cy="275.0" r="4.4" fill="#a67c3d"/>
<circle cx="187.8" cy="264.5" r="4.4" fill="#a67c3d"/>
<circle cx="211.5" cy="296.0" r="4.4" fill="#a67c3d"/>
<circle cx="211.5" cy="285.5" r="4.4" fill="#a67c3d"/>
<circle cx="211.5" cy="275.0" r="4.4" fill="#a67c3d"/>
<circle cx="211.5" cy="264.5" r="4.4" fill="#a67c3d"/>
<circle cx="211.5" cy="254.0" r="4.4" fill="#a67c3d"/>
<circle cx="211.5" cy="243.5" r="4.4" fill="#a67c3d"/>
<circle cx="211.5" cy="233.0" r="4.4" fill="#a67c3d"/>
<circle cx="211.5" cy="222.5" r="4.4" fill="#a67c3d"/>
<circle cx="211.5" cy="212.0" r="4.4" fill="#a67c3d"/>
<circle cx="235.1" cy="296.0" r="4.4" fill="#a67c3d"/>
<circle cx="235.1" cy="285.5" r="4.4" fill="#a67c3d"/>
<circle cx="235.1" cy="275.0" r="4.4" fill="#a67c3d"/>
<circle cx="235.1" cy="264.5" r="4.4" fill="#a67c3d"/>
<circle cx="235.1" cy="254.0" r="4.4" fill="#a67c3d"/>
<circle cx="235.1" cy="243.5" r="4.4" fill="#a67c3d"/>
<circle cx="684.2" cy="296.0" r="4.4" fill="#a67c3d"/>
<path d="M176 396 H696" stroke="#6b5a3e" stroke-width="0.6"/>
<text x="24.0" y="374.0" font-size="17" fill="#3b2f1e" font-weight="bold">ἅγιοι</text>
<text x="24.0" y="392.0" font-size="13" fill="#6b5a3e" font-style="italic">hagioi, “saints”</text>
<text x="24.0" y="408.0" font-size="12.5" fill="#6b5a3e">G40 · 13 times</text>
<circle cx="282.4" cy="388.0" r="4.4" fill="#2f4f7f"/>
<circle cx="353.3" cy="388.0" r="4.4" fill="#2f4f7f"/>
<circle cx="353.3" cy="377.5" r="4.4" fill="#2f4f7f"/>
<circle cx="424.2" cy="388.0" r="4.4" fill="#2f4f7f"/>
<circle cx="471.5" cy="388.0" r="4.4" fill="#2f4f7f"/>
<circle cx="471.5" cy="377.5" r="4.4" fill="#2f4f7f"/>
<circle cx="495.1" cy="388.0" r="4.4" fill="#2f4f7f"/>
<circle cx="542.4" cy="388.0" r="4.4" fill="#2f4f7f"/>
<circle cx="566.0" cy="388.0" r="4.4" fill="#2f4f7f"/>
<circle cx="589.6" cy="388.0" r="4.4" fill="#2f4f7f"/>
<circle cx="589.6" cy="377.5" r="4.4" fill="#2f4f7f"/>
<circle cx="613.3" cy="388.0" r="4.4" fill="#2f4f7f"/>
<circle cx="636.9" cy="388.0" r="4.4" fill="#2f4f7f"/>
<path d="M176 488 H696" stroke="#6b5a3e" stroke-width="0.6"/>
<text x="24.0" y="466.0" font-size="17" fill="#3b2f1e" font-weight="bold">θλῖψις</text>
<text x="24.0" y="484.0" font-size="13" fill="#6b5a3e" font-style="italic">thlipsis, “tribulation”</text>
<text x="24.0" y="500.0" font-size="12.5" fill="#6b5a3e">G2347 · 5 times</text>
<circle cx="187.8" cy="480.0" r="4.4" fill="#3b2f1e"/>
<circle cx="211.5" cy="480.0" r="4.4" fill="#3b2f1e"/>
<circle cx="211.5" cy="469.5" r="4.4" fill="#3b2f1e"/>
<circle cx="211.5" cy="459.0" r="4.4" fill="#3b2f1e"/>
<circle cx="329.6" cy="480.0" r="4.4" fill="#3b2f1e"/>
<path d="M176 586 H696" stroke="#6b5a3e" stroke-width="0.6"/>
<text x="24.0" y="564.0" font-size="17" fill="#3b2f1e" font-weight="bold">μετανοέω</text>
<text x="24.0" y="582.0" font-size="13" fill="#6b5a3e" font-style="italic">metanoeō, “repent”</text>
<text x="24.0" y="598.0" font-size="12.5" fill="#6b5a3e">G3340 · 12 times</text>
<circle cx="211.5" cy="578.0" r="4.4" fill="#3b2f1e"/>
<circle cx="211.5" cy="567.5" r="4.4" fill="#3b2f1e"/>
<circle cx="211.5" cy="557.0" r="4.4" fill="#3b2f1e"/>
<circle cx="211.5" cy="546.5" r="4.4" fill="#3b2f1e"/>
<circle cx="211.5" cy="536.0" r="4.4" fill="#3b2f1e"/>
<circle cx="235.1" cy="578.0" r="4.4" fill="#3b2f1e"/>
<circle cx="235.1" cy="567.5" r="4.4" fill="#3b2f1e"/>
<circle cx="211.5" cy="525.5" r="4" fill="#faf6ec" stroke="#8b1e1e" stroke-width="1.6"/>
<circle cx="376.9" cy="578.0" r="4" fill="#faf6ec" stroke="#8b1e1e" stroke-width="1.6"/>
<circle cx="376.9" cy="567.5" r="4" fill="#faf6ec" stroke="#8b1e1e" stroke-width="1.6"/>
<circle cx="542.4" cy="578.0" r="4" fill="#faf6ec" stroke="#8b1e1e" stroke-width="1.6"/>
<circle cx="542.4" cy="567.5" r="4" fill="#faf6ec" stroke="#8b1e1e" stroke-width="1.6"/>
<text x="337.6" y="464.0" font-size="12" fill="#3b2f1e" font-style="italic">7:14 “the great tribulation”</text>
<text x="678.2" y="274.0" font-size="12" fill="#3b2f1e" text-anchor="end" font-style="italic">22:16</text>
<text x="386.9" y="546.0" font-size="12.5" fill="#8b1e1e" font-weight="bold">○ refused: 2:21; “they did not repent”</text>
<circle cx="34" cy="712" r="4.4" fill="#a67c3d"/>
<text x="46.0" y="717.0" font-size="13" fill="#3b2f1e">Pretribulational reading: the church, named nineteen times to the end of</text>
<text x="46.0" y="734.0" font-size="13" fill="#3b2f1e">chapter 3, is in heaven while chapters 6–19 unfold on earth.</text>
<circle cx="34" cy="756" r="4.4" fill="#2f4f7f"/>
<text x="46.0" y="761.0" font-size="13" fill="#3b2f1e">Other readers: the “saints” of chapters 5–20 are the church on earth.</text>
<text x="46.0" y="778.0" font-size="13" fill="#6b5a3e" font-style="italic">A count shows where a word is; it cannot say who the saints are.</text>
<text x="696.0" y="798.0" font-size="11" fill="#6b5a3e" text-anchor="end" font-style="italic">After the manner of Clarence Larkin · the-way.lewy.au</text>
</svg>
